{
  "accessors": [
    {
      "bufferView": 2,
      "componentType": 5126,
      "count": 65533,
      "max": [
        0.37161797285079956,
        0.2449449747800827,
        0.9922990202903748
      ],
      "min": [
        -0.36725297570228577,
        -0.27199700474739075,
        -0.938979983329773
      ],
      "type": "VEC3"
    },
    {
      "bufferView": 2,
      "byteOffset": 786396,
      "componentType": 5126,
      "count": 65533,
      "max": [
        0.9999557137489319,
        0.9999447464942932,
        0.9999331831932068
      ],
      "min": [
        -0.9999747276306152,
        -0.9999908208847046,
        -0.9999746680259705
      ],
      "type": "VEC3"
    },
    {
      "bufferView": 1,
      "componentType": 5126,
      "count": 65533,
      "max": [
        0.9994990229606628,
        0.9999949932098389
      ],
      "min": [
        4.0064998756861314e-05,
        0.0006955265998840332
      ],
      "type": "VEC2"
    },
    {
      "bufferView": 1,
      "byteOffset": 524264,
      "componentType": 5126,
      "count": 65533,
      "max": [
        0.9994990229606628,
        0.9999949932098389
      ],
      "min": [
        4.0064998756861314e-05,
        0.0006955265998840332
      ],
      "type": "VEC2"
    },
    {
      "bufferView": 0,
      "componentType": 5125,
      "count": 289782,
      "type": "SCALAR"
    },
    {
      "bufferView": 2,
      "byteOffset": 1572792,
      "componentType": 5126,
      "count": 65532,
      "max": [
        0.39435794949531555,
        0.12210598587989807,
        0.9833139777183533
      ],
      "min": [
        -0.26076096296310425,
        -0.12652498483657837,
        -1.0
      ],
      "type": "VEC3"
    },
    {
      "bufferView": 2,
      "byteOffset": 2359176,
      "componentType": 5126,
      "count": 65532,
      "max": [
        0.9999720454216003,
        0.9999938011169434,
        0.9999433159828186
      ],
      "min": [
        -0.9999918937683105,
        -0.9999906420707703,
        -0.9996196031570435
      ],
      "type": "VEC3"
    },
    {
      "bufferView": 1,
      "byteOffset": 1048528,
      "componentType": 5126,
      "count": 65532,
      "max": [
        0.9994940161705017,
        0.9999979734420776
      ],
      "min": [
        1.1957499737036414e-05,
        0.0006696581840515137
      ],
      "type": "VEC2"
    },
    {
      "bufferView": 1,
      "byteOffset": 1572784,
      "componentType": 5126,
      "count": 65532,
      "max": [
        0.9994940161705017,
        0.9999979734420776
      ],
      "min": [
        1.1957499737036414e-05,
        0.0006696581840515137
      ],
      "type": "VEC2"
    },
    {
      "bufferView": 0,
      "byteOffset": 1159128,
      "componentType": 5125,
      "count": 269880,
      "type": "SCALAR"
    },
    {
      "bufferView": 2,
      "byteOffset": 3145560,
      "componentType": 5126,
      "count": 65532,
      "max": [
        0.3879459500312805,
        0.19016803801059723,
        1.0
      ],
      "min": [
        -0.39435794949531555,
        -0.03420199081301689,
        -0.9893519878387451
      ],
      "type": "VEC3"
    },
    {
      "bufferView": 2,
      "byteOffset": 3931944,
      "componentType": 5126,
      "count": 65532,
      "max": [
        0.9999975562095642,
        0.9999931454658508,
        0.9999938607215881
      ],
      "min": [
        -0.9999958276748657,
        -0.9999697208404541,
        -0.9999860525131226
      ],
      "type": "VEC3"
    },
    {
      "bufferView": 1,
      "byteOffset": 2097040,
      "componentType": 5126,
      "count": 65532,
      "max": [
        0.9994860291481018,
        0.999987006187439
      ],
      "min": [
        2.6692300707509276e-06,
        0.0002447962760925293
      ],
      "type": "VEC2"
    },
    {
      "bufferView": 1,
      "byteOffset": 2621296,
      "componentType": 5126,
      "count": 65532,
      "max": [
        0.9994860291481018,
        0.999987006187439
      ],
      "min": [
        2.6692300707509276e-06,
        0.0002447962760925293
      ],
      "type": "VEC2"
    },
    {
      "bufferView": 0,
      "byteOffset": 2238648,
      "componentType": 5125,
      "count": 283704,
      "type": "SCALAR"
    },
    {
      "bufferView": 2,
      "byteOffset": 4718328,
      "componentType": 5126,
      "count": 65532,
      "max": [
        0.24070297181606293,
        0.27199700474739075,
        0.9937459826469421
      ],
      "min": [
        -0.3742329776287079,
        0.09186478704214096,
        -0.9906529784202576
      ],
      "type": "VEC3"
    },
    {
      "bufferView": 2,
      "byteOffset": 5504712,
      "componentType": 5126,
      "count": 65532,
      "max": [
        0.9999991059303284,
        0.9999932646751404,
        0.9994291663169861
      ],
      "min": [
        -0.9999967217445374,
        -0.999976634979248,
        -0.9996733069419861
      ],
      "type": "VEC3"
    },
    {
      "bufferView": 1,
      "byteOffset": 3145552,
      "componentType": 5126,
      "count": 65532,
      "max": [
        0.9994810223579407,
        0.9999979734420776
      ],
      "min": [
        0.00016155600314959884,
        0.0006751418113708496
      ],
      "type": "VEC2"
    },
    {
      "bufferView": 1,
      "byteOffset": 3669808,
      "componentType": 5126,
      "count": 65532,
      "max": [
        0.9994810223579407,
        0.9999979734420776
      ],
      "min": [
        0.00016155600314959884,
        0.0006751418113708496
      ],
      "type": "VEC2"
    },
    {
      "bufferView": 0,
      "byteOffset": 3373464,
      "componentType": 5125,
      "count": 257700,
      "type": "SCALAR"
    },
    {
      "bufferView": 2,
      "byteOffset": 6291096,
      "componentType": 5126,
      "count": 63430,
      "max": [
        0.3742809593677521,
        0.16374090313911438,
        0.9956939816474915
      ],
      "min": [
        -0.3934149444103241,
        0.004731298889964819,
        -0.9883859753608704
      ],
      "type": "VEC3"
    },
    {
      "bufferView": 2,
      "byteOffset": 7052256,
      "componentType": 5126,
      "count": 63430,
      "max": [
        0.9999991059303284,
        0.9999862313270569,
        0.9998785853385925
      ],
      "min": [
        -0.9998880624771118,
        -0.9999251365661621,
        -0.9999650120735168
      ],
      "type": "VEC3"
    },
    {
      "bufferView": 1,
      "byteOffset": 4194064,
      "componentType": 5126,
      "count": 63430,
      "max": [
        0.9994959831237793,
        0.9999989867210388
      ],
      "min": [
        1.363930005027214e-05,
        0.0006714463233947754
      ],
      "type": "VEC2"
    },
    {
      "bufferView": 1,
      "byteOffset": 4701504,
      "componentType": 5126,
      "count": 63430,
      "max": [
        0.9994959831237793,
        0.9999989867210388
      ],
      "min": [
        1.363930005027214e-05,
        0.0006714463233947754
      ],
      "type": "VEC2"
    },
    {
      "bufferView": 0,
      "byteOffset": 4404264,
      "componentType": 5125,
      "count": 240762,
      "type": "SCALAR"
    }
  ],
  "asset": {
    "extras": {
      "author": "golden4445 (https://sketchfab.com/golden4445)",
      "license": "CC-BY-4.0 (http://creativecommons.org/licenses/by/4.0/)",
      "source": "https://sketchfab.com/3d-models/stella-girl-08f81fedb4224ceab1a0424edde278ba",
      "title": "stella girl"
    },
    "generator": "Sketchfab-17.3.0",
    "version": "2.0"
  },
  "bufferViews": [
    {
      "buffer": 0,
      "byteLength": 5367312,
      "name": "floatBufferViews",
      "target": 34963
    },
    {
      "buffer": 0,
      "byteLength": 5208944,
      "byteOffset": 5367312,
      "byteStride": 8,
      "name": "floatBufferViews",
      "target": 34962
    },
    {
      "buffer": 0,
      "byteLength": 7813416,
      "byteOffset": 10576256,
      "byteStride": 12,
      "name": "floatBufferViews",
      "target": 34962
    }
  ],
  "buffers": [
    {
      "byteLength": 18389672,
      "uri": "scene.bin"
    }
  ],
  "extensionsRequired": [
    "KHR_materials_pbrSpecularGlossiness"
  ],
  "extensionsUsed": [
    "KHR_materials_pbrSpecularGlossiness"
  ],
  "images": [
    {
      "uri": "textures/Material.001_diffuse.jpeg"
    }
  ],
  "materials": [
    {
      "doubleSided": true,
      "extensions": {
        "KHR_materials_pbrSpecularGlossiness": {
          "diffuseFactor": [
            1.0,
            1.0,
            1.0,
            1.0
          ],
          "diffuseTexture": {
            "index": 0
          },
          "glossinessFactor": 0.2944740403018372,
          "specularFactor": [
            0.0,
            0.0,
            0.0
          ]
        }
      },
      "name": "Material.001"
    }
  ],
  "meshes": [
    {
      "name": "Mesh_0_Material.001_0",
      "primitives": [
        {
          "attributes": {
            "NORMAL": 1,
            "POSITION": 0,
            "TEXCOORD_0": 2,
            "TEXCOORD_1": 3
          },
          "indices": 4,
          "material": 0,
          "mode": 4
        }
      ]
    },
    {
      "name": "Mesh_0_Material.001_0",
      "primitives": [
        {
          "attributes": {
            "NORMAL": 6,
            "POSITION": 5,
            "TEXCOORD_0": 7,
            "TEXCOORD_1": 8
          },
          "indices": 9,
          "material": 0,
          "mode": 4
        }
      ]
    },
    {
      "name": "Mesh_0_Material.001_0",
      "primitives": [
        {
          "attributes": {
            "NORMAL": 11,
            "POSITION": 10,
            "TEXCOORD_0": 12,
            "TEXCOORD_1": 13
          },
          "indices": 14,
          "material": 0,
          "mode": 4
        }
      ]
    },
    {
      "name": "Mesh_0_Material.001_0",
      "primitives": [
        {
          "attributes": {
            "NORMAL": 16,
            "POSITION": 15,
            "TEXCOORD_0": 17,
            "TEXCOORD_1": 18
          },
          "indices": 19,
          "material": 0,
          "mode": 4
        }
      ]
    },
    {
      "name": "Mesh_0_Material.001_0",
      "primitives": [
        {
          "attributes": {
            "NORMAL": 21,
            "POSITION": 20,
            "TEXCOORD_0": 22,
            "TEXCOORD_1": 23
          },
          "indices": 24,
          "material": 0,
          "mode": 4
        }
      ]
    }
  ],
  "nodes": [
    {
      "children": [
        1
      ],
      "matrix": [
        1.0,
        0.0,
        0.0,
        0.0,
        0.0,
        2.220446049250313e-16,
        -1.0,
        0.0,
        0.0,
        1.0,
        2.220446049250313e-16,
        0.0,
        0.0,
        0.0,
        0.0,
        1.0
      ],
      "name": "Sketchfab_model"
    },
    {
      "children": [
        2
      ],
      "matrix": [
        0.009999999776482582,
        0.0,
        0.0,
        0.0,
        0.0,
        0.0,
        0.009999999776482582,
        0.0,
        0.0,
        -0.009999999776482582,
        0.0,
        0.0,
        0.0,
        0.0,
        0.0,
        1.0
      ],
      "name": "e5efc81eab8d4dc9943e88cfa6dd9f4c.fbx"
    },
    {
      "children": [
        3
      ],
      "name": "RootNode"
    },
    {
      "children": [
        4,
        5,
        6,
        7,
        8
      ],
      "matrix": [
        100.0,
        0.0,
        0.0,
        0.0,
        0.0,
        -4.371139006309477e-06,
        -99.9999999999999,
        0.0,
        0.0,
        99.9999999999999,
        -4.371139006309477e-06,
        0.0,
        0.0,
        0.0,
        0.0,
        1.0
      ],
      "name": "Mesh_0"
    },
    {
      "mesh": 0,
      "name": "Mesh_0_Material.001_0"
    },
    {
      "mesh": 1,
      "name": "Mesh_0_Material.001_0"
    },
    {
      "mesh": 2,
      "name": "Mesh_0_Material.001_0"
    },
    {
      "mesh": 3,
      "name": "Mesh_0_Material.001_0"
    },
    {
      "mesh": 4,
      "name": "Mesh_0_Material.001_0"
    }
  ],
  "samplers": [
    {
      "magFilter": 9729,
      "minFilter": 9987,
      "wrapS": 10497,
      "wrapT": 10497
    }
  ],
  "scene": 0,
  "scenes": [
    {
      "name": "Sketchfab_Scene",
      "nodes": [
        0
      ]
    }
  ],
  "textures": [
    {
      "sampler": 0,
      "source": 0
    }
  ]
}
